<?xml version="1.0" encoding="UTF-8"?>
<svg width="26px" height="26px" viewBox="0 0 26 26" version="1.1" xmlns="http://www.w3.org/2000/svg" xmlns:xlink="http://www.w3.org/1999/xlink">
    <title>logo copy</title>
    <g id="App" stroke="none" stroke-width="1" fill="none" fill-rule="evenodd">
        <g id="logo-copy" fill-rule="nonzero">
            <path d="M5.81871574,0 L20.1812843,0 C22.2045785,0 22.9382739,0.210666938 23.67796,0.606255405 C24.4176461,1.00184388 24.9981561,1.58235388 25.3937446,2.32204001 C25.7893331,3.06172613 26,3.79542151 26,5.81871574 L26,20.1812843 C26,22.2045785 25.7893331,22.9382739 25.3937446,23.67796 C24.9981561,24.4176461 24.4176461,24.9981561 23.67796,25.3937446 C22.9382739,25.7893331 22.2045785,26 20.1812843,26 L5.81871574,26 C3.79542151,26 3.06172613,25.7893331 2.32204001,25.3937446 C1.58235388,24.9981561 1.00184388,24.4176461 0.606255405,23.67796 C0.210666938,22.9382739 0,22.2045785 0,20.1812843 L0,5.81871574 C0,3.79542151 0.210666938,3.06172613 0.606255405,2.32204001 C1.00184388,1.58235388 1.58235388,1.00184388 2.32204001,0.606255405 C3.06172613,0.210666938 3.79542151,0 5.81871574,0 Z" id="Rectangle-Copy-4" fill="#041E77"></path>
            <polygon id="Path-2-Copy" fill="#FFFFFF" points="4 8 4 17 9 12.5"></polygon>
            <path d="M15.2157352,12.99596 L23,4.00807996 L17.7270215,4 C14.5228607,7.72665122 11.9471868,10.7226112 10,12.9878801 C11.9471868,15.2639222 14.5228607,18.2652688 17.7270215,21.9919201 L23,22 L15.2157352,12.99596 Z" id="Path-3-Copy" fill="#FFFFFF"></path>
        </g>
    </g>
</svg>