<?xml version="1.0" encoding="UTF-8"?>
<svg width="94px" height="94px" viewBox="0 0 94 94" version="1.1" xmlns="http://www.w3.org/2000/svg" xmlns:xlink="http://www.w3.org/1999/xlink">
    <title>Artboard</title>
    <g id="Artboard" stroke="none" stroke-width="1" fill="none" fill-rule="evenodd">
        <g id="Group-Copy-4">
            <path d="M82.25,0 L11.75,0 C5.26065125,0 0,5.26065125 0,11.75 L0,82.25 C0,88.7392313 5.26065125,94 11.75,94 L82.25,94 C88.7392313,94 94,88.7392313 94,82.25 L94,11.75 C94,5.26065125 88.7392313,0 82.25,0 Z" id="Path" fill="#001675" fill-rule="nonzero"></path>
            <path d="M76,12 C76,12 72.92787,12 66.783905,12 C57.567515,12 53.89683,42.4581125 41.64194,42.4581125 C29.386755,42.4581125 34.604715,27.9226375 26.4384955,27.9226375 C20.9944475,27.9226375 17.8482725,27.9226375 17,27.9226375 L29.050455,47.33315 L17,67.0773625 C17.8482725,67.0773625 20.9944475,67.0773625 26.4384955,67.0773625 C34.604715,67.0773625 29.386755,52.5418875 41.64194,52.5418875 C53.89683,52.5418875 57.567515,83 66.783905,83 C72.92787,83 76,83 76,83 L55.52405,47.33315 L76,12 Z" id="Path" fill="#FAFAFA"></path>
        </g>
    </g>
</svg>