<svg width="451" height="101" viewBox="0 0 451 101" fill="none" xmlns="http://www.w3.org/2000/svg">
<path d="M405.543 100.906C393.322 100.906 384.593 90.2959 387.357 75.761L394.632 38.4064H409.617L402.342 75.0343C400.597 83.4645 405.252 88.5517 411.654 88.5517C420.383 88.5517 426.784 82.011 429.112 69.9471L435.223 38.4064H450.063L438.278 99.0168H423.438L423.729 97.5633C424.457 94.2203 420.965 92.4761 418.201 95.2378L417.182 96.2552C413.982 99.3075 410.49 100.906 405.543 100.906Z" fill="#001675"/>
<path d="M327.973 100.906C313.133 100.906 299.312 86.226 299.312 69.6562C299.312 49.162 313.57 36.5167 332.629 36.5167C340.485 36.5167 345.432 39.1329 348.341 43.2027L350.233 45.9643C352.561 49.0167 355.616 47.9992 356.343 44.8015L357.798 38.4062H372.201L360.417 99.0167H345.868L346.014 97.8539C346.45 94.8015 343.686 93.2027 340.34 95.9643L338.303 97.5632C335.975 99.4527 332.629 100.906 327.973 100.906ZM314.297 68.7841C314.297 80.2667 322.444 88.6969 333.647 88.6969C344.268 88.6969 351.979 80.412 351.979 68.7841C351.979 57.1562 344.268 48.726 333.647 48.726C322.444 48.726 314.297 57.1562 314.297 68.7841Z" fill="#001675"/>
<path d="M231.002 99.0167L250.061 0.90625H274.066C292.107 0.90625 304.182 11.9528 304.182 27.3597C304.182 44.2202 291.961 55.2667 269.411 55.2667H258.208C256.171 55.2667 254.426 56.8656 253.989 58.9004L246.278 99.0167H231.002ZM257.19 39.569C256.899 41.6039 258.063 42.9121 260.245 42.9121H271.448C282.65 42.9121 288.47 37.3888 288.47 28.3772C288.47 18.7842 282.068 13.6969 271.448 13.6969H265.919C263.737 13.6969 261.991 15.1504 261.554 17.3307L257.19 39.569Z" fill="#001675"/>
<path d="M174.604 100.906C162.383 100.906 153.653 90.2959 156.418 75.761L163.692 38.4064H178.677L171.403 75.0343C169.657 83.4645 174.313 88.5517 180.714 88.5517C189.443 88.5517 195.845 82.011 198.173 69.9471L204.283 38.4064H219.123L207.339 99.0168H192.499L192.79 97.5633C193.517 94.2203 190.025 92.4761 187.261 95.2378L186.243 96.2552C183.042 99.3075 179.55 100.906 174.604 100.906Z" fill="#001675"/>
<path d="M97.0336 100.906C82.1939 100.906 68.3725 86.226 68.3725 69.6562C68.3725 49.162 82.6303 36.5167 101.689 36.5167C109.546 36.5167 114.492 39.1329 117.402 43.2027L119.293 45.9643C121.621 49.0167 124.676 47.9992 125.404 44.8015L126.859 38.4062H141.262L129.477 99.0167H114.929L115.074 97.8539C115.511 94.8015 112.746 93.2027 109.4 95.9643L107.363 97.5632C105.035 99.4527 101.689 100.906 97.0336 100.906ZM83.3578 68.7841C83.3578 80.2667 91.5051 88.6969 102.708 88.6969C113.328 88.6969 121.039 80.412 121.039 68.7841C121.039 57.1562 113.328 48.726 102.708 48.726C91.5051 48.726 83.3578 57.1562 83.3578 68.7841Z" fill="#001675"/>
<path d="M0.0625 99.0167L19.1214 0.90625H43.1269C61.1675 0.90625 73.243 11.9528 73.243 27.3597C73.243 44.2202 61.022 55.2667 38.4713 55.2667H27.2688C25.2319 55.2667 23.4861 56.8656 23.0496 58.9004L15.3387 99.0167H0.0625ZM26.2503 39.569C25.9594 41.6039 27.1233 42.9121 29.3056 42.9121H40.5082C51.7107 42.9121 57.5303 37.3888 57.5303 28.3772C57.5303 18.7842 51.1288 13.6969 40.5082 13.6969H34.9796C32.7973 13.6969 31.0514 15.1504 30.615 17.3307L26.2503 39.569Z" fill="#001675"/>
</svg>
